<svg xmlns="http://www.w3.org/2000/svg" viewBox="0 0 880 440" width="880" height="440" role="img" aria-labelledby="t d">
<title id="t">Orrery of nhaajtt</title>
<desc id="d">nhaajtt: 10 public repositories, 0 stars, 0 followers, mostly JavaScript. Each planet is a public repository. Newer pushes orbit closer to the sun and each language has its own fill symbol.</desc>
<style>
  :root { --paper: #0d2f6b; --ink: #eaf1ff; --dim: #a9bde6; --grid: #eaf1ff; --sun: #f2d16b; }
  @media (prefers-color-scheme: light) { :root { --paper: #f4f7fb; --ink: #0d2f6b; --dim: #4d648f; --grid: #0d2f6b; --sun: #e0ac1a; } }
  text { font-family: 'Sofia Sans Extra Condensed', 'Arial Narrow', 'Helvetica Neue', Arial, sans-serif; font-stretch: condensed; fill: var(--ink); }
  .name { font-size: 46px; font-weight: 800; letter-spacing: -0.5px; }
  .handle { font-size: 16px; fill: var(--dim); }
  .head { font-size: 13px; fill: var(--dim); }
  .row { font-size: 17px; font-weight: 600; }
  .lang { font-size: 14px; fill: var(--dim); }
  .note { font-size: 13px; fill: var(--dim); }
  .cv { font-size: 24px; font-weight: 800; }
  .ck { font-size: 12px; fill: var(--dim); }
  .grid { stroke: var(--grid); stroke-opacity: .09; stroke-width: 1; }
  .rule { stroke: var(--ink); stroke-opacity: .28; stroke-width: 1; }
  .frame { fill: none; stroke: var(--ink); stroke-opacity: .55; }
  .ring { fill: none; stroke: var(--ink); stroke-opacity: .34; stroke-width: 1; }
  .axis { stroke: var(--ink); stroke-opacity: .16; stroke-width: 1; stroke-dasharray: 2 4; }
  .tick { fill: none; stroke: var(--ink); stroke-opacity: .5; stroke-width: 1; }
  .sunline { fill: none; stroke: var(--sun); }
</style>
<defs>
<pattern id="sy-hatch-up" patternUnits="userSpaceOnUse" width="3.2" height="3.2" patternTransform="rotate(45)"><line x1="0" y1="0" x2="0" y2="3.2" stroke="var(--ink)" stroke-width="1"/></pattern><pattern id="sy-hatch-down" patternUnits="userSpaceOnUse" width="3.2" height="3.2" patternTransform="rotate(-45)"><line x1="0" y1="0" x2="0" y2="3.2" stroke="var(--ink)" stroke-width="1"/></pattern><pattern id="sy-cross" patternUnits="userSpaceOnUse" width="3.2" height="3.2" patternTransform="rotate(45)"><path d="M0 0V3.2M0 0H3.2" stroke="var(--ink)" stroke-width="0.9" fill="none"/></pattern><pattern id="sy-lines" patternUnits="userSpaceOnUse" width="3.4" height="3.4" patternTransform="rotate(0)"><line x1="0" y1="0" x2="0" y2="3.4" stroke="var(--ink)" stroke-width="1"/></pattern><pattern id="sy-bars" patternUnits="userSpaceOnUse" width="3.4" height="3.4" patternTransform="rotate(90)"><line x1="0" y1="0" x2="0" y2="3.4" stroke="var(--ink)" stroke-width="1"/></pattern><pattern id="sy-dots" patternUnits="userSpaceOnUse" width="3.6" height="3.6"><circle cx="1.8" cy="1.8" r="0.8" fill="var(--ink)"/></pattern><pattern id="sy-target" patternUnits="userSpaceOnUse" width="8" height="8"><circle cx="4" cy="4" r="2.6" fill="none" stroke="var(--ink)" stroke-width="0.9"/><circle cx="4" cy="4" r="0.8" fill="var(--ink)"/></pattern><linearGradient id="sy-half" x1="0" x2="1" y1="0" y2="0"><stop offset="0.5" stop-color="var(--ink)"/><stop offset="0.5" stop-color="var(--paper, transparent)"/></linearGradient>
<pattern id="grid" width="20" height="20" patternUnits="userSpaceOnUse"><path class="grid" d="M20 0H0V20" fill="none"/></pattern>
</defs>
<rect width="880" height="440" rx="6" fill="var(--paper)"/>
<rect width="880" height="440" rx="6" fill="url(#grid)"/>
<rect class="frame" x="10" y="10" width="860" height="420" stroke-width="1.4"/>
<rect class="frame" x="16" y="16" width="848" height="408" stroke-width="0.6"/>
<text class="name" x="40" y="72">Nhaajt</text>
<text class="handle" x="40" y="96">@nhaajtt</text>
<text class="head" x="40" y="136">Public repositories</text>
<line class="rule" x1="40" y1="168" x2="304" y2="168"/><circle cx="50" cy="158" r="6.5" fill="var(--paper, transparent)" stroke="var(--ink)" stroke-width="1.2"/><circle cx="50" cy="158" r="6.5" fill="url(#sy-bars)" stroke="var(--ink)" stroke-width="1.2"/><text class="row" x="68" y="162">nhaajtt.github.io</text><text class="lang" x="304" y="162" text-anchor="end">CSS</text><line class="rule" x1="40" y1="198" x2="304" y2="198"/><circle cx="50" cy="188" r="6.5" fill="var(--paper, transparent)" stroke="var(--ink)" stroke-width="1.2"/><text class="row" x="68" y="192">nhaajtt</text><text class="lang" x="304" y="192" text-anchor="end">no language</text><line class="rule" x1="40" y1="228" x2="304" y2="228"/><circle cx="50" cy="218" r="6.5" fill="var(--paper, transparent)" stroke="var(--ink)" stroke-width="1.2"/><circle cx="50" cy="218" r="6.5" fill="url(#sy-dots)" stroke="var(--ink)" stroke-width="1.2"/><text class="row" x="68" y="222">ai-redteam</text><text class="lang" x="304" y="222" text-anchor="end">Python</text><line class="rule" x1="40" y1="258" x2="304" y2="258"/><circle cx="50" cy="248" r="6.5" fill="var(--paper, transparent)" stroke="var(--ink)" stroke-width="1.2"/><circle cx="50" cy="248" r="6.5" fill="url(#sy-dots)" stroke="var(--ink)" stroke-width="1.2"/><text class="row" x="68" y="252">re-ai-assist</text><text class="lang" x="304" y="252" text-anchor="end">Python</text><line class="rule" x1="40" y1="288" x2="304" y2="288"/><circle cx="50" cy="278" r="6.5" fill="var(--paper, transparent)" stroke="var(--ink)" stroke-width="1.2"/><circle cx="50" cy="278" r="6.5" fill="url(#sy-dots)" stroke="var(--ink)" stroke-width="1.2"/><text class="row" x="68" y="282">exploit-labs</text><text class="lang" x="304" y="282" text-anchor="end">Python</text><text class="lang" x="40" y="314">and 5 more on the chart</text>
<text class="head" x="40" y="348">How to read this sheet</text><text class="note" x="40" y="363">Orbit: how recently a repository was pushed.</text><text class="note" x="40" y="378">Size: stars and repository size.</text><text class="note" x="40" y="393">Fill symbol: the main language.</text>
<line class="axis" x1="310" y1="208" x2="866" y2="208"/>
<line class="axis" x1="588" y1="73.84" x2="588" y2="342.15999999999997"/>
<ellipse class="ring" cx="588" cy="208" rx="49.6" ry="20.8"/>
<ellipse class="ring" cx="588" cy="208" rx="75.0" ry="31.5"/>
<ellipse class="ring" cx="588" cy="208" rx="97.0" ry="40.7"/>
<ellipse class="ring" cx="588" cy="208" rx="117.9" ry="49.5"/>
<ellipse class="ring" cx="588" cy="208" rx="138.1" ry="58.0"/>
<ellipse class="ring" cx="588" cy="208" rx="157.7" ry="66.2"/>
<ellipse class="ring" cx="588" cy="208" rx="177.0" ry="74.3"/>
<ellipse class="ring" cx="588" cy="208" rx="196.0" ry="82.3"/>
<ellipse class="ring" cx="588" cy="208" rx="214.7" ry="90.2"/>
<ellipse class="ring" cx="588" cy="208" rx="233.1" ry="97.9"/>
<path class="tick" d="M 835.1 208.0 L 843.1 208.0 M 831.4 226.0 L 835.3 226.3 M 820.2 243.5 L 824.0 244.1 M 802.0 259.9 L 808.9 261.6 M 777.3 274.7 L 780.4 275.8 M 746.8 287.5 L 749.4 288.8 M 711.6 297.9 L 715.6 300.8 M 672.5 305.5 L 673.9 307.1 M 630.9 310.2 L 631.6 311.9 M 588.0 311.8 L 588.0 315.2 M 545.1 310.2 L 544.4 311.9 M 503.5 305.5 L 502.1 307.1 M 464.4 297.9 L 460.4 300.8 M 429.2 287.5 L 426.6 288.8 M 398.7 274.7 L 395.6 275.8 M 374.0 259.9 L 367.1 261.6 M 355.8 243.5 L 352.0 244.1 M 344.6 226.0 L 340.7 226.3 M 340.9 208.0 L 332.9 208.0 M 344.6 190.0 L 340.7 189.7 M 355.8 172.5 L 352.0 171.9 M 374.0 156.1 L 367.1 154.4 M 398.7 141.3 L 395.6 140.2 M 429.2 128.5 L 426.6 127.2 M 464.4 118.1 L 460.4 115.2 M 503.5 110.5 L 502.1 108.9 M 545.1 105.8 L 544.4 104.1 M 588.0 104.2 L 588.0 100.8 M 630.9 105.8 L 631.6 104.1 M 672.5 110.5 L 673.9 108.9 M 711.6 118.1 L 715.6 115.2 M 746.8 128.5 L 749.4 127.2 M 777.3 141.3 L 780.4 140.2 M 802.0 156.1 L 808.9 154.4 M 820.2 172.5 L 824.0 171.9 M 831.4 190.0 L 835.3 189.7"/>
<circle class="sunline" cx="588" cy="208" r="26" stroke-dasharray="2 3" stroke-opacity=".7"/>
<circle class="sunline" cx="588" cy="208" r="17" stroke-opacity=".9"/>
<circle cx="588" cy="208" r="8" fill="var(--sun)"/>
<g><title>nhaajtt.github.io, CSS</title><circle cx="0" cy="0" r="7.6" fill="var(--paper, transparent)" stroke="var(--ink)" stroke-width="1.4"/><circle cx="0" cy="0" r="7.6" fill="url(#sy-bars)" stroke="var(--ink)" stroke-width="1.4"/><animateMotion dur="40.6s" begin="-11.8s" repeatCount="indefinite" path="M 637.6 208 a 49.6 20.832 0 1 0 -99.2 0 a 49.6 20.832 0 1 0 99.2 0 z"/></g>
<g><title>nhaajtt</title><circle cx="0" cy="0" r="6.4" fill="var(--paper, transparent)" stroke="var(--ink)" stroke-width="1.4"/><animateMotion dur="31.8s" begin="-15.1s" repeatCount="indefinite" path="M 663.0018380042488 208 a 75.00183800424887 31.500771961784523 0 1 0 -150.00367600849773 0 a 75.00183800424887 31.500771961784523 0 1 0 150.00367600849773 0 z"/></g>
<g><title>ai-redteam, Python</title><circle cx="0" cy="0" r="5.4" fill="var(--paper, transparent)" stroke="var(--ink)" stroke-width="1.4"/><circle cx="0" cy="0" r="5.4" fill="url(#sy-dots)" stroke="var(--ink)" stroke-width="1.4"/><animateMotion dur="38.4s" begin="-25.3s" repeatCount="indefinite" path="M 685.0015058072754 208 a 97.00150580727536 40.74063243905565 0 1 0 -194.00301161455073 0 a 97.00150580727536 40.74063243905565 0 1 0 194.00301161455073 0 z"/></g>
<g><title>re-ai-assist, Python</title><circle cx="0" cy="0" r="5.4" fill="var(--paper, transparent)" stroke="var(--ink)" stroke-width="1.4"/><circle cx="0" cy="0" r="5.4" fill="url(#sy-dots)" stroke="var(--ink)" stroke-width="1.4"/><animateMotion dur="42.8s" begin="-34.1s" repeatCount="indefinite" path="M 705.876974966234 208 a 117.87697496623404 49.508329485818294 0 1 0 -235.7539499324681 0 a 117.87697496623404 49.508329485818294 0 1 0 235.7539499324681 0 z"/></g>
<g><title>exploit-labs, Python</title><circle cx="0" cy="0" r="5.4" fill="var(--paper, transparent)" stroke="var(--ink)" stroke-width="1.4"/><circle cx="0" cy="0" r="5.4" fill="url(#sy-dots)" stroke="var(--ink)" stroke-width="1.4"/><animateMotion dur="59.1s" begin="-16.4s" repeatCount="indefinite" path="M 726.054337533423 208 a 138.05433753342294 57.98282176403763 0 1 0 -276.1086750668459 0 a 138.05433753342294 57.98282176403763 0 1 0 276.1086750668459 0 z"/></g>
<g><title>re-tools, Python</title><circle cx="0" cy="0" r="5.4" fill="var(--paper, transparent)" stroke="var(--ink)" stroke-width="1.4"/><circle cx="0" cy="0" r="5.4" fill="url(#sy-dots)" stroke="var(--ink)" stroke-width="1.4"/><animateMotion dur="74.4s" begin="-17.4s" repeatCount="indefinite" path="M 745.7279939921137 208 a 157.72799399211374 66.24575747668777 0 1 0 -315.4559879842275 0 a 157.72799399211374 66.24575747668777 0 1 0 315.4559879842275 0 z"/></g>
<g><title>ctf-writeups, Python</title><circle cx="0" cy="0" r="6.3" fill="var(--paper, transparent)" stroke="var(--ink)" stroke-width="1.4"/><circle cx="0" cy="0" r="6.3" fill="url(#sy-dots)" stroke="var(--ink)" stroke-width="1.4"/><animateMotion dur="92.4s" begin="-37.4s" repeatCount="indefinite" path="M 765.0093404116581 208 a 177.0093404116581 74.3439229728964 0 1 0 -354.0186808233162 0 a 177.0093404116581 74.3439229728964 0 1 0 354.0186808233162 0 z"/></g>
<g><title>fuzzing-lab, PowerShell</title><circle cx="0" cy="0" r="5.4" fill="var(--paper, transparent)" stroke="var(--ink)" stroke-width="1.4"/><circle cx="0" cy="0" r="5.4" fill="url(#sy-hatch-up)" stroke="var(--ink)" stroke-width="1.4"/><animateMotion dur="90.9s" begin="-66.6s" repeatCount="indefinite" path="M 783.9704399057999 208 a 195.9704399057999 82.30758476043596 0 1 0 -391.9408798115998 0 a 195.9704399057999 82.30758476043596 0 1 0 391.9408798115998 0 z"/></g>
<g><title>canary-bypass, Python</title><circle cx="0" cy="0" r="5.4" fill="var(--paper, transparent)" stroke="var(--ink)" stroke-width="1.4"/><circle cx="0" cy="0" r="5.4" fill="url(#sy-dots)" stroke="var(--ink)" stroke-width="1.4"/><animateMotion dur="83.2s" begin="-8.5s" repeatCount="indefinite" path="M 802.6616303264323 208 a 214.66163032643226 90.15788473710154 0 1 0 -429.3232606528645 0 a 214.66163032643226 90.15788473710154 0 1 0 429.3232606528645 0 z"/></g>
<g><title>orrery, JavaScript</title><circle cx="0" cy="0" r="9.4" fill="var(--paper, transparent)" stroke="var(--ink)" stroke-width="1.4"/><circle cx="0" cy="0" r="9.4" fill="url(#sy-hatch-up)" stroke="var(--ink)" stroke-width="1.4"/><animateMotion dur="73.4s" begin="-72.5s" repeatCount="indefinite" path="M 821.12 208 a 233.11999999999998 97.91039999999998 0 1 0 -466.23999999999995 0 a 233.11999999999998 97.91039999999998 0 1 0 466.23999999999995 0 z"/></g>
<rect class="frame" x="602" y="366" width="232" height="50" stroke-width="1"/>
<text class="cv" x="622" y="392">10</text><text class="ck" x="622" y="406">public repos</text><text class="cv" x="698" y="392">0</text><text class="ck" x="698" y="406">stars</text><line class="rule" x1="688" y1="374" x2="688" y2="410"/><text class="cv" x="774" y="392">0</text><text class="ck" x="774" y="406">followers</text><line class="rule" x1="764" y1="374" x2="764" y2="410"/>
</svg>
